/* XPM */
static char *_607856851655[] = {
/* columns rows colors chars-per-pixel */
"64 64 252 2 ",
"   c #77684D",
".  c #7B6C55",
"X  c #7D665B",
"o  c #7E695C",
"O  c #766655",
"+  c #76725A",
"@  c #777555",
"#  c #6A7352",
"$  c #7D6964",
"%  c #7B7668",
"&  c #727272",
"*  c #A84B1C",
"=  c #BC4D1D",
"-  c #B5491B",
";  c #A9541C",
":  c #B2531E",
">  c #BC521D",
",  c #BA5B1E",
"<  c #B6591A",
"1  c #B4440F",
"2  c #B2621D",
"3  c #9E5B2E",
"4  c #AD4D24",
"5  c #AB4C29",
"6  c #B44C24",
"7  c #BC4C24",
"8  c #B64C2C",
"9  c #BB4E2B",
"0  c #B64524",
"q  c #AC5425",
"w  c #AB5A23",
"e  c #AD532C",
"r  c #AD5B2C",
"t  c #A55427",
"y  c #B35524",
"u  c #BC5324",
"i  c #B45A25",
"p  c #BB5B25",
"a  c #B4552C",
"s  c #BB542C",
"d  c #B45A2C",
"f  c #BB5B2C",
"g  c #AC4E39",
"h  c #B44D33",
"j  c #BB4E32",
"k  c #B54E3C",
"l  c #BC4D3B",
"z  c #B84739",
"x  c #A45534",
"c  c #AC5433",
"v  c #AD5B33",
"b  c #A4543B",
"n  c #AB543A",
"m  c #AC5C3A",
"M  c #A45A36",
"N  c #B45334",
"B  c #BD5233",
"V  c #B55B32",
"C  c #BB5B33",
"Z  c #B5543A",
"A  c #BA553B",
"S  c #B5593C",
"D  c #BB5A3B",
"F  c #AA612A",
"G  c #BB612C",
"H  c #B56329",
"J  c #AA623A",
"K  c #B56233",
"L  c #BB6235",
"P  c #BC613A",
"I  c #B8683D",
"U  c #BD703A",
"Y  c #9C5A27",
"T  c #C54B18",
"R  c #C2541D",
"E  c #C3581E",
"W  c #C24E25",
"Q  c #C34D2B",
"!  c #C94D2D",
"~  c #C8472B",
"^  c #C35324",
"/  c #C35B24",
"(  c #C3542C",
")  c #CA542C",
"_  c #C35A2C",
"`  c #CA5A2B",
"'  c #CA5524",
"]  c #D35529",
"[  c #C74D36",
"{  c #D34D32",
"}  c #C35434",
"|  c #CB5433",
" . c #C35B33",
".. c #CB5B34",
"X. c #C2553A",
"o. c #CA543A",
"O. c #C55A3B",
"+. c #CA5C3B",
"@. c #D35334",
"#. c #D25C3A",
"$. c #D25838",
"%. c #D04E2E",
"&. c #C5622A",
"*. c #C56234",
"=. c #CC6334",
"-. c #CC623A",
";. c #C46638",
":. c #D3653D",
">. c #D5663C",
",. c #D5703A",
"<. c #925B50",
"1. c #AA5747",
"2. c #BC5B41",
"3. c #B85847",
"4. c #BE4F42",
"5. c #88644C",
"6. c #96684C",
"7. c #826B5D",
"8. c #8B6A5C",
"9. c #866757",
"0. c #936B5B",
"q. c #946857",
"w. c #87735C",
"e. c #99765C",
"r. c #85724F",
"t. c #AB6947",
"y. c #B86747",
"u. c #BB6D53",
"i. c #B76A56",
"p. c #B87654",
"a. c #BD724A",
"s. c #836C63",
"d. c #886A6C",
"f. c #956766",
"g. c #867665",
"h. c #977863",
"j. c #947174",
"k. c #A27B75",
"l. c #A07564",
"z. c #C44E42",
"x. c #C35B43",
"c. c #C75747",
"v. c #CD6343",
"b. c #C66748",
"n. c #D56641",
"m. c #DC6641",
"M. c #DD6A44",
"N. c #D36945",
"B. c #C9734C",
"V. c #CA6A5B",
"C. c #D56B59",
"Z. c #C87659",
"A. c #D6735B",
"S. c #D9755D",
"D. c #D77B5B",
"F. c #E36D48",
"G. c #E0735E",
"H. c #E07049",
"J. c #C87864",
"K. c #DC7C64",
"L. c #D77864",
"P. c #D36E62",
"I. c #E47C65",
"U. c #E97E66",
"Y. c #E67D67",
"T. c #6C856E",
"R. c #9F8368",
"E. c #A98670",
"W. c #BE8A5B",
"Q. c #C8825A",
"!. c #D4845B",
"~. c #CC8467",
"^. c #D88667",
"/. c #D6906F",
"(. c #E38166",
"). c #E98067",
"_. c #E08268",
"`. c #E9836B",
"'. c #F58C74",
"]. c #F78E77",
"[. c #EA9475",
"{. c #ED9075",
"}. c #9C9D9B",
"|. c #AB9998",
" X c #B89B99",
".X c #A89A89",
"XX c #9DA698",
"oX c #B7A28C",
"OX c #A8A599",
"+X c #B5A69C",
"@X c #989BA5",
"#X c #AB9AA4",
"$X c #BC9AA2",
"%X c #B69DA8",
"&X c #B08DA3",
"*X c #99A3A4",
"=X c #97B4BA",
"-X c #8DAEAF",
";X c #A4A2A4",
":X c #ADA5A3",
">X c #ACA9A4",
",X c #ACACAA",
"<X c #A7A8A7",
"1X c #B4A4A4",
"2X c #BCA2A6",
"3X c #B2A9A6",
"4X c #B3A5AB",
"5X c #BDA5A9",
"6X c #B4ABAA",
"7X c #BCAAA9",
"8X c #ACB2A9",
"9X c #B9A6B1",
"0X c #B1B1AD",
"qX c #C29797",
"wX c #CA9D8A",
"eX c #F49B83",
"rX c #C8A58B",
"tX c #C7A699",
"yX c #D5AA98",
"uX c #C7B79D",
"iX c #D8B49C",
"pX c #D3A58D",
"aX c #E7B19D",
"sX c #C39DB2",
"dX c #C894AA",
"fX c #C1A6AA",
"gX c #C5A6A8",
"hX c #CBBDA5",
"jX c #C7BAA7",
"kX c #DCB3A5",
"lX c #D5BAA5",
"zX c #DBBBA6",
"xX c #D5BDAA",
"cX c #DABDA9",
"vX c #D8B5A7",
"bX c #C9B9B3",
"nX c #D6BBB6",
"mX c #D2ADA9",
"MX c #E6ACA6",
"NX c #E3BCA9",
"BX c #E6B5A8",
"VX c #E8BBB4",
"CX c #F2B7B7",
"ZX c #CCC1A6",
"AX c #CDC3A9",
"SX c #CAC3A9",
"DX c #D2C4AC",
"FX c #D8C3AD",
"GX c #D6C5B4",
"HX c #C9C1B6",
"JX c #E5C2AA",
"KX c #D2BDC3",
/* pixels */
"*X X+X8X%X&X9X0X1X7X5X1X4X7X5X1XfXfX2XfX5X2XgX2X+X6X>X,XOXoX#X%X*X|.tX3X>X9X7X0X2X2XfX5X5X5X2XfXfX7X2X5XfX2X2XfXgX8X4X<XOXtX}.&X",
"bXMXiXDXCXMXcXcXAXGXDXhXDXDXAXAXAXDXAXAXAXAXZXAXMXNXvXyXrXwX+XgXbXyXMXNXlXBXNXiXZXhXGXAXhXAXZXGXZXZXhXZXAXhXuXAXMXlXkXtXrXwXOX5X",
"iX/.Z.~.^.I.~.!.Y.U.Y.Y.U.Y.Y.U.(.(._.(.(.(.(.(.!.^.~.Z.y.t.E.+XtXJ.^.~.Q.~.D.Q.A.A.K.K.A.S.A.K.S.D.D.I.).K.S.D.!.Q.K.u.y.u.E.+X",
"JX_.;.U :.:.;.,.m.n.:.m.F.n.#.M.n.m.>.:.>.>.>.>.f *.+.9 y M e.+XvXJ.M.N.P n.,.=.:.:.M.n.:.n.:.M.=.:.:.M.H.>...:.` K ..6 q C R.+X",
"JXP. .i 7 W : ` d q q r V t t V d i a i d y q a _ _ | ~ 7 M 8.<XxXV.o.f 4 s ) ' a a C s a d a C y a d C L f 4 a ' d @.7 s 2.g.>X",
"xXP.+.f s } e -.B s 8 B  .9 6  .! ) Q Q Q Q ! Q s s | 7 s b 9.|.bXJ.o.| e C | ( 9 Q | Q 7 ! 7 | Q ! ! ! | ) W ! s e { 0 s 2.+ |.",
"hXV.@.p B D t X.C a a s D a 8 C s B s B s s 9 s s B ..s +.1.q.4XhXJ.@.^ w V }  .s s +.B B B s X.a s 9 s D 9 6 s ( V $.6 D b.7.1X",
"hXC.| : u C t A B f s s  .s y  .s C p d s p p s 9 s +.: p v <.+XhX~.] = w C  .n.y a C a 8 p p C f p a p f p a f ) d #.: p D 5. X",
"nXA.| 2.[ } s X.B j j B x.O.B 0 j X.X.A O.X.j X.B V ) - G x O 0XxXD...x.X.Q C } B 9 A j B X.j X.} B B +.} 9 9 +. .b > d C d $ XX",
"uXB./ d 8 i < _ y y i G G p q ; i p p p f p y i Z v | y G x O 9XhXB., K d , H G a q d i i d a d p y i f p : y G | g ^ } | | f.+X",
"uXB./ V 6 > , =.> u u / _ ^ u = u ^ ( ^ ` _ u ^ } V { 9 _ l <.sXhXA.^ d s ^ &.] u 9 ( 7 u ( u ^ ^ u ^ / _ > 7 ` _ x ^ B o.o.f.$X",
"bXP.+.S h s f #.B B B B } B j 8 j } } } X.} 9 } s d | 6 f A s.5XnXP.j S l ( _ o.B 9 B j B X.B D } } B } } B B } / M , c D V d.|.",
"jXZ.d M c y i } V a a a V C a e a C V V C C a d p F _ w F J @ OXbXZ.C M Z a d } a e V a N V a Z C V a C C N d C ' 5 , v V C o OX",
"rX-.1 q 7 R > ' ` W = > / ` ^ - ^ ^ ^ ' ` ' W ^ %.s @.6 N 2.r. XrXn.T d Q R / @.^ = ^ u W _ ^ ^ ^ ^ ^ ^ ' _ ^ ^ ] h ' A D C 7.oX",
"qXx.Q S 3.Z Z z.D N 8 N S B N N Z C A B D D N N x.1.c.1.A c.f.qXqXv.| I S 5 S c.Z h A Z Z D Z A A l A Z A O.A Z O.1.m 1.3.S s.OX",
"=Xk.e.g.% s.o d.7.o . X o . 7.X 9.7.7.7.g.7.X 9.7.# 8.5.5.h.% ;X-Xh.q.% $ O . d.X X o X X 7.o s.s.s.X 7.s.d.s.X r.O 5.s.0.6.& OX",
"1X1X1X1X1X1X1X1XOX5X4X8XOX.X|.&X*X|.tXOX#X9X#X:X:X:X3X+X:X3XOX6X3X>X6X:X>X6X:X:X6X#X:X>XOX.X}.%X*X|.gX|.4X4X%X<X>X>X3X3X3X3X6X6X",
"xXxXxXxXxXxXxXxXiXMXkXlXyXoXOXgXbXvXaXkXGXCXBXNXlXlXFXlXxXFXlXFXcXxXFXxXxXxXvXxXJXkXkXyXrXoX XbXbXtXaXyXGXVXVXvXlXxXlXlXlXcXcXzX",
"_.^.(._._._.(.^.Q.V.y.y.B.t.g. XuX/./././.eX{./.{.'.].'.'.].'.].].'.].].'.].'.'./.^.L.Z.B.p.E.5XiX~.^.!./.^.^.Q.K.I.I.Y.I.I.U.).",
" .*. .C  .C  . .f $.8 * ! m e.jXyXZ.-.f ;.M.:.&.:.=.>.:.-.>.-.>.N.-.>.v.n.-.=.n.&. .| ) } J e.+XiXZ...f ;.} ' , _  .*.*... ...:.",
" .s } f _ C } _ y @.( * { y.. :XNXJ. .p f #.) u _ y  .s y  ._ f  .s s C s C u D _ | | %.o.Z 8.OXNXZ.-.p C ) ] f p f *. .f f  .=.",
"! ! ! ! ! ! ! ! s #. .4 @.y.g.<XNXJ.+.f C #.( 4 ( 0 ( } 7 ( ( 9 ( 9 } Q 9 } 7 Q  .C } ) | n 9.*XmXi.+.f C Q | a 0 s ( ( W 7 Q | ",
"V V d V V d V V s | d * ~ S 9.3XzXJ.+.f a X.B t C t C V e V K d V d V d d V e r  .C d s :.S 0.,XxXp.+.f C | o.e t v K V e q d L ",
"9 9 9 9 9 9 9 9 ( Q K w ) A 9. XNXZ..._ : 9 B c ) - ( ! = ( | 7 ( Q | 9 7 | Q Q ( a 4 : _ e <.OXcXu. .u p } c.N - ( ) _ ~ 7 ) | ",
"} } s B X.X.D B a } ) * ` D @ +XnXK.o.4.l } K B O.8 X.X.8 X.O.j B 8 N.B h v.j j D 9 s p ' e w.1XnXA.Q z.z.) d j 0 j X.A j j } } ",
"G i y i p p , : e C B * B 2.+ 1XSXD.f r s , 2 i f q f C ; d f a a ; ;.i : ;.: y S j a d ( x $ %XSXb.- d ..E H p * q p i i i d i ",
"/ u > p / ^ u u s  .o.6 ! z.9.dXiXD./ a 7 > < 7 / 6 _ _ 7 ( ( s ^ : =.u > =.u u s { 9 6 @.g 9.%XhXv.1 ( @.' E ) - u ^ u u s ^ u ",
"x.B 9 } O.B s } u  .#.e 9 Z .  XbXK...Z l 9 y [ X.9 X.A j B } B } B +.} 8 O.B s 6 { 7 * ) x X %XbXb.0 2.c.) s [ 8 B X.B j B B j ",
";.a e C C d e d p f +.Y w M # OXhX!.=.J A d i B S a V V a S a V C e L V e C V V ; p w ; d 3   +XjXy.: I x.s d } e V D C a a a a ",
"` ^ u ^ ` ^ ^ ^ ' ) o.t 9 n    XpXF.' p 7 = > ! ^ = ( ^ ^ ^ 7 ^ ` ^ / ^ = ^ ^ ^ a | V t ) c 9.qXrX=.T  ...T / @.= ` ..( W 7 ^ u ",
"2.A Z A 2.D A Z A k z.1.k 3.g.qXqXC.! m g c r 4.A A D Z A D N S D B N B a S D D m z.3.n l 1.f.qX Xv.Q y.3.Z K c.h 2.x.2.Z h Z k ",
"s.s.o o s.s.$ X r.O 8.O 5.0.T.;X=XE.f.% $ o + d.o o s.X 7.s.X s.g.o 7.o X 9.7.7.. 8.7.  5.9.T.*X=Xj.0.g.$ O + d.$ s.s.s.$ s.$ O ",
"}. X7XOX&XsX,X>X1X6X6X#X4X6X3X3X1X1X2X1X1X1X+X1X$X|.<X;XOX.X|.#X@X|.tX4X4X4X X<X%X1XfX2X1X2X%X5X5X5X$X5XfX2X%XfX3X<X%XXXXX.X}.&X",
"HXMXJXuXMXCXJXFXSXDXDXZXAXDXAXAXDXAXZXZXhXZXhXhXNXvXcXlXrXwX XbXKXyXaXcXnXMXMXxXjXlXDXZXhXAXhXlXAXAXhXAXAXZXjXZXNXFXBXtXoXpX+XmX",
"tX/.~.W.J._.Q.!.(.Y.Y.I.`.Y.I.U.).U.U.U.U.U.Y.Y.^.^.^.Z.y.t.E.7XtXJ.D.~.Z.D.!.Q.G.G.U.S.C.I.G.I.A.S.A.K.(.S.C.A.Z.Q.K.u.t.i.R.qX",
"iXK.N.U :.:.*.=.>.:.#.:.M.#...m.m.M.m.m.m.m.m.m._ _ +.W 6 x e.+XkXb.:.N.P =.>.=.>.m.F.m.>.F.m.F.:.n.m.M.H.n...:./ L #.) s ;.R.gX",
"zXG.+.d ( ) y / d e q r K q t K d d i K i d r d &. .$.) 9 m h.<XnXB.] +.a R E ' r d P d d L d L e d d C ;.V y a ^ d @.7 ( x.g.:X",
"FXL.+.f _ } B +.} s 9 s } 9 6 } ( ( ( ( B Q s (  .} | ! B b 8.}.GXJ.@.} e y ' [ 9 9 +.s 6 s s B 7 ! Q ) | Q 0 Q ) V @.9 | x.7.;X",
"jXC.! i s N c +.s a a a C 6 4 B s f s s p s s s s s B f B m 0.:XnXJ.] Q 5 i 7 o.a s *.a a B s C } B s B  .s s  .! t D * s x.5.#X",
"lXA.| i s a t D B s s (  .s 9 } ( ( s s ( s s 7 6 s s u p 5 q. XbXD.] Q S f _ C.6 a } 8 6 s a s C C p B D a a B | v *.* i O.5.+X",
"nXC.| S z 9 a 4.A j j A x.x.j 5 B X.O.B }  .B j } Z ) u p e . 8XDXA...b.X.9 a O.h 8 X.A A X.[ [ B B }  .O.8 9 -.) Z ^ s _ p $ XX",
"jXB.&.K 8 , H *.y y a p f f y ; i p p i f p < y B M ..i d c o 9XZXB./ F s , 2 *.q q p i p f a a i > y G f : : *. .b p B X.C s.OX",
"uXB.' d 7 R 2 ] 7 u s ( _ ( u 7 u ^ ^ / / ^ 7 ^ } V @.9 } l 0.sXxXB.` d s ^ E #.7 y ( s ( / 7 s ^ ^ u ^ / ^ = ` ) n ^ B o.[ f.%X",
"bXV. .S l ) p | B B B } X.} j 8 } } B } O.B 9 } s d | u d A 8.%XKXV.j S l ) p o.N 8 A B } X.j } } B j } O.B j  .' e R B O.} d. X",
"jXZ.d m S _ p } S a e a V D a 5 d S V C P N a d u F / t F J @ <XbXV.B m Z d i X.e e V V V S a a d V a V C C a D / t , v K F % XX",
"pX..T y 7 E E ~ ' u = u / / ^ = ^ ' ^ ' ` ' W ^ ) C @.6 d D 9. XpX-.T f ) R , @.> = ^ ^ ^ ' W ^ ^ ' W W ' _ ^ _ ] g ^ N 2.B 9.oX",
"qXO.9 m g c e z.D A h h 2.A Z h h O.A A D A Z h 4.1.z.g S 3.8.qXtXx.( J 3.N V c.c g A A A D Z l A A Z Z D O.k A O.1.A 1.3.X.f. X",
"=Xk.h.% $ o % j.s.$ o 7.X $ 7.$ X s.s.7.d.s.7.X r.+ 8.  q.0.% #X=Xh.6.% $ O O d.X O $ o $ s.7.7.7.s.9.X d.s.s.$ r.# r.$ 0.6.& XX",
":X>X3X:X>X>X1X1X>X$X#X0X+X.X}.&X*X2X+XOX:X9X:X1X:X:X3X+X3X6X+X6X>X>X0XOX:X0XOX<XOX#X,X#XXXOX|.|.*X|.dX+X,X9X9X,X>X:X:X3X1X3X1X+X",
"cXcXxXzXcXzXlXFXiXMXyXlXiXrX|.gX0XMXaXiXVXCXcXaXcXvXcXvXcXJXlXcXNXBXNXBXkXNXkXBXaXkXnXiXtXtX XgXbXyXMXiXVXVXBXmXxXxXcXlXzXcXzXJX",
").(.).).).(.).U.W.A.u.t.y.t.h. XuX/.^./.[.eX/.[.'.'.].'.].].'.].[.[.[.[.[.[.{.[./.^.L.B.a.p.E.gXiXJ.D.!./.`.(.Q.I.Y.).Y.U.U.).).",
".... . ... . . .p $.s * ) J w.jXiXS.;.K v.M.;.=.:.-.>.:.-.>.:.:.n...:.:.>.>...:.N...^ = : M l.7XiXZ.-.f ;...` p B  .*.+.` ` =.=.",
"f _ f C _ f f  .q @.Q * @.S . 6XFXL.( w ) $.s = f y f _ d _ f d  .^ ( _ ( ( u _ ....| ' ' c f.<XNXZ.-.f _ ) ) ^ a f  .C f s _ *.",
"( ( ( ( ( ) ( ( s #. .4 @.3.o 8XxXP. .K ) #.d 6 } 6 } } 9 } | s d a s a s d e a } } | ^  .n 8.*XkXi.+.p B Q ! y 9 s  .} W 7 ( ` ",
"V d K d V V V V ( } V * Q 2.w.3XxXL.-.H s o.C 5 K t K K w K K r B p D s p B 9 p ..+.V a +.2.e.,XvXi.+._ f o.o.N e v K K r e d L ",
"W Q 7 Q 9 W W W | ! K ; ' O.9. XcXA.+.i - j c e ..- ) ..7 ( ..( s ( ( u 9 ( 9 ^ - d r 5 O.A 5..XNXu. .u u } c.a 0 s ) ( 7 7 ^ ` ",
"X.B j B X.X.j B a } ~ * ` P @ 1XGXK.| N j s i N X.6  .} 8 _ } s X.8 v.B 8 v.j } | ~ s i p t w.3XKXV.0 X.c.) f A 0 h x.A j A X.X.",
"G i q i p i i y e C B t ( S + 1XAXD./ r a > 2 y P e D C e S D a p : ;.; ; ;.y y S j a e _ M s.%XlXb.1 p ..E H C ; y p p a p p a ",
"/ u u u _ u u u a } o.6 ~ z.7.dXxXD.` d 9 R p ^ / : ` / = / ` u _ > =.7 - =.u u r [ j 7 { k 8.sXjXx.1 _ $.E E | 6 u s s s _ ( u ",
"O.B s B X.} s B p | #.q ( z 7. XnXK.+.2.4.}  .[ _ 7 _ s u ( s p B j v.9 8 +.B s w | 9 - @.N 9.%XbXb.7 O.c.W s [ 8 [ X.B B B B j ",
"C a e d C N a a , f +.Y t M # OXjXP.+.J Z a C A A c D S N S Z A V a L e 4 L V e Y _ i ; _ 3 # <XjXb.: K 2.6 q B 4 V P V a a N a ",
"` ^ = ^ _ ^ R u ' ! o.t 9 S @ |.pXF.] f 9 = / ~ ^ 7 ( 7 W ^ 7 ^ ^ > ' ^ = ^ ^ R 6 { s 4 | m r. XrX=.T +.[ T R ] = ` ..^ 7 = ^ u ",
"D N N N D C N N A 4.c.1.k 3.w.qXtXC.} m n e r l a 6 p a a d y s D N N D N a Z N n 4.1.x k 1.f.qX+Xv.( 3.3.g c A g D b.A N k h N ",
"s.X X 9.7.7.o X     9.  5.0.T.<X=Xh.q.$ O   O X s.$ s.$ $ d.X s.7.O o s.9.X X o   5.O # 5.5.% #X-Xk.8.% $ O   X X s.s.$ X X X O "
};
