/* XPM */
static char *_607949233620[] = {
/* columns rows colors chars-per-pixel */
"64 64 66 1 ",
"  c #000006",
". c #00000A",
"X c #0B050E",
"o c #010C0E",
"O c #0C0C0E",
"+ c #120D0F",
"@ c #12100F",
"# c #0F0F10",
"$ c #110F10",
"% c #1B0F15",
"& c #151110",
"* c #1E1411",
"= c #240D15",
"- c #221414",
"; c #281517",
": c #261914",
"> c #2C1A15",
", c #271418",
"< c #2B1718",
"1 c #2E1819",
"2 c #361F17",
"3 c #381F17",
"4 c #3C161A",
"5 c #32191A",
"6 c #3B1C1B",
"7 c #372017",
"8 c #382017",
"9 c #3B2119",
"0 c #3E281C",
"q c #451E1D",
"w c #481F1E",
"e c #41221D",
"r c #4B211E",
"t c #40281F",
"y c #4B2B1F",
"u c #50241F",
"i c #4F2320",
"p c #532520",
"a c #582721",
"s c #562821",
"d c #5A2922",
"f c #563526",
"g c #593727",
"h c #5B3928",
"j c #622E24",
"k c #6E3227",
"l c #703327",
"z c #753629",
"x c #783729",
"c c #773929",
"v c #7D3B2B",
"b c #813D2C",
"n c #89422F",
"m c #9B4F34",
"M c #9D5134",
"N c #A45436",
"B c #A85637",
"V c #A95638",
"C c #AC5B3A",
"Z c #B25E3D",
"A c #B5623F",
"S c #BA6541",
"D c #C3774B",
"F c #C6794C",
"G c #C97A4D",
"H c #D48152",
/* pixels */
"888777929297779777790X-*-23399777997779777779779790:997777979779",
"NNNNNNNNNNNNNNNNNVNCFg.*yNNNNNNNNNNNNNNNNVNNNNNNMCDimNNNNNNNNNNN",
"vbvbvvvvvbvvbbvvvvvvSFgXpvbbvvvvvvbbbbvvvvbvvvvvvnC0svbbvbvbvbvv",
"llllzlzkllzlzlllkzzklSF0qlllzlllllllllllllzllzzzkvM74lllllllllll",
"xxxzxxzxxxxxxxxxxxzxlbC9qlvzzzvzxxxxvvxxzxzxzxzzkbN9exxxzxxxvccx",
"zcxzzzxzzzzzzczzzzzxlvM9qzzzzzzzxxxlklzzxzxlzzzvlvN7qzzzzxzxxlxx",
"zxzzzxzxzxxzxlzzzxxxzvN3qzzzxxczzlksislczxzxxzxzlvN9qzzzxzxlzzzx",
"zzzxxzxzzzzxlpzcxzxxlvN9qzxzzllzlpplllzxxzxzxzzxlnN7qzxzzzzzxxzz",
"xzzzxzxzzzzxlplzlcxxlvN3qkzkpipisklxxczxzzzxxzxzlvN9qzxzzxxzzzxz",
"zzxzzxlxxzxzzkiiikxxkbN9,ippkzkzkdkxzzzzzxzzzzzxlvN9qzzzxlzzxzzz",
"zxxzxlskzzclii<,<iclpvN2<kzkxxcxzkslxzzzzzzxzxzxlbN9qzzxzpzxzzxz",
"zzzzzzkiizli<<**;ikdkvM2qxczzxzlxzplxzzzzzzzzzzzlbN9qlzzkikxzzzz",
"zxxxzcxzkii1,****1ikli2-wlxxxxxzxxzzxzzxxxxxxxcxlvM5-iikskxcxzzc",
"zlzlkkzzi<<<<*****<ii<**ikxlzlzzzzzzzlzlzzlzzzzlpi9-*<1ikzzlzlzz",
"wiiiiiii,%<<<<*****,%&&&;qwwiqwwwwqwiirqqwqwwewq;*o#@@#,iqiqwwww",
"******,6et<<<1<****2777>52227755570#-:-2222357325777227775775775",
"****:#2MVMvzii1<<,pMVVMcNVNNNVNVNCGg  5MVVNNNNVNNNBNVVNNNVNNNVNN",
"<<1<;*-svbVVlq<1iilvvvcdxvvvvvvvvvAGht>svvvvvvvvvvvvvvvvvvvvvvvv",
"wwwq5;*elzvvswiiklzzzkpkzzzzzzzzllvZHG04kzkzzzkzzlzllllllzkzzlzz",
"iqiqe<-rzzlzkiklszzzclpzxzzxzzzzxxlzAZ5qxxxxxzxxxcxcxxxxxxxxxxzx",
"rwrww1-wzzzzskxxzzzzzpzzzzxxxzzzzxxlvMtqzzzzzxzxzzzxxlxxlxlxzxzz",
"wrwrw1*rzzzzzzzzzxzzkpkzzzzzzzxxzzxlbM9qzzksikxzzxvllxlxzxxzzzzx",
"rwrww<-rlzzzxzxzzzzzpkszxzzxzzzzczxlbN6qzzzzkdkxxxkpskdlzzxxzxzz",
"wrwrw<*rzzxzzxzzxzzkskskxzzzzxxzzzzzbM6qxzzxxkskxkskkskxzxlxzzzx",
"rwrww<-rzzzxzxzxzxzslzzzzzxzzzxzzlakbN9qzxzzzzskzikxxkdkzzzxzzzx",
"wrwrw<*rzzzzzxzzzzzzzzzzxzxzxzzzzxkpzM3qzxzxzzkdkszxzzksxxzxzxzz",
"rwrwq<-rzxzxzzxzxzzzzzzzzzzzzzzzzxxkdc5qzzzzzzckikzzxzczzzzzzzzx",
"wrwrw<-rzzzzxzzzzzzzvzzzxxzzzzzzczzzxM9qzxzxzzxzizxzxzzczzzzxxzz",
"rwiww1-elzxlxxzzzzzzzzzzzzzzxzzzzzxlbN9qzxzzxzzpkxzzzzzzzzzzzzzz",
"wrwww1*1ulzlxxzxxxzzczzzxzzlkvzzxzxlbNe6ilxzzxlixxxxzzzcczzzxzzx",
"rwwww1--5iikzklzzzzzzzllzzk66lzzzzllvM8-1ilzzlalzlzkzzzzzzzzzzzz",
"wqqqqq=O+*,qqiwqwqqqwqiiwq<oo<qwqqwwqq*o#,qqqq,6iwiiqqqqqqqqqqqw",
"dddsdsii37929129933390X*997997799399929299399290X-*-997939939369",
"NNNVNNNNNNNNMvMVNNNNCFh-MNNNNNNNNNNNNNNNNNNNNNCFg.@2mNNNNNNNNNNN",
"vvvvvvvbvbvvjzvvvbbvvSGtsvvvvvvvvbvbvbvbvbvbvvbSFf+:dvbvvvbvbbvb",
"lzllzzkklkkpkllkllllkvC94lzklzzkllllzlllzllllllxSG0.iklllllzllll",
"ccxxxxxvlsslxxxxxxxxzvM7ixxxxxzcxxxxcxzxxzxxxxzzCHhXpzvzxzxxvvzz",
"xzzzxxlkdlzxxxzzxxzxzvN9qlxzzzzzzzzzxxzzxzzzzzzzxAF0qzzzzxxzlliw",
"zzzzxlspkxxzlxzxzzzxlvN7qzzzxxlplxxzzzxzxzzzxzzzlbC9qzzzzzkiii1<",
"zzczkskkplxzxzxzxzzxzvN7qzxzxclplxzzxzxzzzxxzzzvlbN3qlxzlpw1,<<<",
"zvlkskvlpkxzzzzxzzzxlvV7qlvzxlpkczzxzzlxczzzzzxzzvV9qzxxckiii<<<",
"xkpplxxxldlxzzxzzxzxlvN9qzzzxkplxzzzxldkxzzxxzzxlvN9qzxcxclzkiwi",
"kskzzzxzzlzzxzzxzxzzzvN9qzzcldkxzxzzzclukzczxzzzlvN7qzxlxzxxzzzl",
"pkxxzzzzzczzzzzzzzzxlvM7wzzzxlxxzzzzcxxlpplzzzzxzvN7qlzxzzzzzxzx",
"lvxxzxzxxzxzxzzxzxxcli6*rkzxzxzzxzzxczzzzkdlxccxzvM7qlvzzxxczzzz",
"xlllzzlzlzzzzzzzzzzki1%*1ilzzzzzzzzzzzzlzzlzzzzlzli*illzzzzzzzzz",
"iwwiiwiirwwqqrewwqiw6*&&#,qwqwwqqiqeqwrrrqrqqwqwiq%o<qqwwqwqqeqi",
"---*****-2332-77755797777222222375570$%-*22222225777222222272771",
"Ooo****&9MNVMdMCNNNNNNNNNNNNNNVNNNNCFg#*eNNNNVNVNNNNVNNVNNVNNVNN",
"9i95<***1dvvvldvvvbvvbvbbvvbvvvvvvvvSF0=zvvvvvvvvvvvvvvvvvvvvvvv",
"NNNvi;*1ikllclpklzzzlzllzzzlzlzlzlzlvC9qzzkzlzllzlzzxllzlxlzzzzl",
"vvbNx5*qlvzxzzlpzxzxxxxxzxxzxxzxzxxlvM9qzxzxxxzxxxccxzxzzxzxlxzx",
"lzlbN5#izxzxzvkpzxzzzxzxzzzzzzzxzzxlvV04zxzzzzxxzzzxzzxlzzzzppkx",
"xclvNi*rlzzzclskzzzzzzzzzzxlalxzxzxlvN9qzzzzxzzzzxzzzxxxxzxzzksk",
"xzxznM7qxzxxzxkpzzxzxzxzzxzulzxzxzclbN94zzzzzzzxzzxxzxxlzzzzxxks",
"xzzkvN06xzxlxldkzzzzzzzzzzlpzzzzzzzzvN9qxzxzplxzxzzzxlzxxzzxzxxl",
"xzczvN3qzxzskiwkuxczzzxzczdlzzzxzxzkvN9qzzzlplxxzzzzzxxzzzzzxzzx",
"zzzlvN8qzzxlp<1ilzxxxzzzzzlzzxzzxzxzvN9qcclskdkxzzxxzzzzlxxzzzxz",
"zxzlbN8qzzzcki<<uzxzzzxzzzxzxzzzzxzlvN9qlckpxkslxzzzxzzzzzzzxzzz",
"zzzlvN7qzxzlski<rlxzzzzzzzzzzzzzxzxkvN9%iiplxzlxzzzzzzzczzzzzzzz",
"zxxzbN9qzvxxlxkpkuxczzczxxxcccczxxxlvN9o5rlxccxzxxxzzxzxxxxxxzzz",
"zlllvM9qzlkkxkskzlzzzzzzzllzlzzzllzlvM7#1rlzlzlzzllzzlzlzllxzzzz",
"rriiru-<iiwii6qirurrrrrrrrrrrrrrirrrii-**>rrrrrrrrirrrrwiiiwwiiw",
"*****&*&******%***********-***-******&*******-**-***************"
};
