/* XPM */
static char *_608051848174[] = {
/* columns rows colors chars-per-pixel */
"64 64 256 2 ",
"   c #191211",
".  c #36160A",
"X  c #271A16",
"o  c #361C16",
"O  c #2A0E07",
"+  c #382619",
"@  c #2E2919",
"#  c #1B2428",
"$  c #382B26",
"%  c #3B3429",
"&  c #29383B",
"*  c #393937",
"=  c #2B2C29",
"-  c #1C2217",
";  c #491914",
":  c #472416",
">  c #562918",
",  c #4F331D",
"<  c #652A1A",
"1  c #663016",
"2  c #482A25",
"3  c #542B25",
"4  c #4A3828",
"5  c #573729",
"6  c #483A36",
"7  c #5C3C34",
"8  c #553A37",
"9  c #492C32",
"0  c #673827",
"q  c #663A36",
"w  c #763C34",
"e  c #6E3027",
"r  c #3C453D",
"t  c #59432B",
"y  c #4B443B",
"u  c #484539",
"i  c #5B4435",
"p  c #5C423A",
"a  c #56473A",
"s  c #504E39",
"d  c #654529",
"f  c #76432A",
"g  c #644533",
"h  c #64443C",
"j  c #6C453B",
"k  c #634B3C",
"l  c #6C4A3B",
"z  c #694732",
"x  c #764938",
"c  c #68543B",
"v  c #76543A",
"b  c #7F5022",
"n  c #79623E",
"m  c #373E46",
"M  c #553C45",
"N  c #463B41",
"B  c #693C41",
"V  c #394849",
"C  c #3C5150",
"Z  c #494745",
"A  c #534B43",
"S  c #594947",
"D  c #49544B",
"F  c #595448",
"G  c #464B56",
"H  c #5A4C53",
"J  c #495856",
"K  c #585857",
"L  c #624C4A",
"P  c #684844",
"I  c #744B46",
"U  c #645345",
"Y  c #6B5343",
"T  c #64534B",
"R  c #6C5B4C",
"E  c #68594A",
"W  c #745445",
"Q  c #745B44",
"!  c #7B5B44",
"~  c #74534A",
"^  c #7B544B",
"/  c #735B4B",
"(  c #7B5B4C",
")  c #7A5445",
"_  c #645C54",
"`  c #6C5B54",
"'  c #675957",
"]  c #735A54",
"[  c #775856",
"{  c #714D52",
"}  c #5A645A",
"|  c #4D6359",
" . c #6A6348",
".. c #76634A",
"X. c #6C6254",
"o. c #6B635B",
"O. c #64655B",
"+. c #736354",
"@. c #7C6454",
"#. c #7C635B",
"$. c #786959",
"%. c #78725C",
"&. c #717251",
"*. c #575C63",
"=. c #4B5662",
"-. c #655E65",
";. c #755A63",
":. c #4A6B68",
">. c #586766",
",. c #5B7369",
"<. c #5B6A72",
"1. c #577874",
"2. c #686866",
"3. c #736B63",
"4. c #7B6B64",
"5. c #776869",
"6. c #69756A",
"7. c #74736C",
"8. c #7C736B",
"9. c #787467",
"0. c #646B73",
"q. c #6A7576",
"w. c #797975",
"e. c #776B74",
"r. c #864A3A",
"t. c #88563C",
"y. c #96563A",
"u. c #8D4B33",
"i. c #A56138",
"p. c #803F45",
"a. c #874B44",
"s. c #875749",
"d. c #955849",
"f. c #8B5D54",
"g. c #855B57",
"h. c #995A55",
"j. c #944D45",
"k. c #A65B48",
"l. c #A45B55",
"z. c #B65F4D",
"x. c #88674A",
"c. c #96644B",
"v. c #836453",
"b. c #8C645B",
"n. c #8B6B5B",
"m. c #866857",
"M. c #966858",
"N. c #897459",
"B. c #99765B",
"V. c #91754D",
"C. c #A9664B",
"Z. c #A76757",
"A. c #B66B55",
"S. c #A9755C",
"D. c #B87559",
"F. c #B36C4A",
"G. c #875C61",
"H. c #9B5C63",
"J. c #836C63",
"K. c #8B6D63",
"L. c #866866",
"P. c #936C62",
"I. c #9C6C63",
"U. c #956868",
"Y. c #8B7364",
"T. c #8C756B",
"R. c #8C7B6B",
"E. c #857768",
"W. c #937463",
"Q. c #93736A",
"!. c #9B746B",
"~. c #937A6C",
"^. c #9B7D6D",
"/. c #987964",
"(. c #887975",
"). c #977A75",
"_. c #8A6D74",
"`. c #A46B63",
"'. c #AA6865",
"]. c #B56D65",
"[. c #A87969",
"{. c #B77968",
"}. c #A87B75",
"|. c #B57A74",
" X c #A46F77",
".X c #C4785A",
"XX c #C67A65",
"oX c #C8756C",
"OX c #903F3C",
"+X c #7A8579",
"@X c #678478",
"#X c #97855D",
"$X c #A9835B",
"%X c #8D846A",
"&X c #998568",
"*X c #878578",
"=X c #988778",
"-X c #9A907E",
";X c #A78669",
":X c #BA866B",
">X c #B8966A",
",X c #AB847B",
"<X c #A78977",
"1X c #B78876",
"2X c #A9957A",
"3X c #B79679",
"4X c #A7936C",
"5X c #BDA37B",
"6X c #C6986E",
"7X c #C58B77",
"8X c #C79578",
"9X c #D19071",
"0X c #D0A479",
"qX c #7C7A87",
"wX c #6C7A81",
"eX c #9E7D83",
"rX c #798886",
"tX c #7C9389",
"yX c #888683",
"uX c #968A85",
"iX c #84978B",
"pX c #989688",
"aX c #9A8D92",
"sX c #989995",
"dX c #879395",
"fX c #A78C86",
"gX c #B58A83",
"hX c #A79787",
"jX c #BB9C84",
"kX c #B69987",
"lX c #A59994",
"zX c #B99C94",
"xX c #97A397",
"cX c #A9A28A",
"vX c #BBA588",
"bX c #B8A896",
"nX c #AFAB98",
"mX c #95A7A7",
"MX c #B3ACA9",
"NX c #8C9BA2",
"BX c #C59A86",
"VX c #C99D92",
"CX c #CE9787",
"ZX c #C6A789",
"AX c #D5AB87",
"SX c #C8A796",
"DX c #C8B198",
"FX c #D4B091",
"GX c #E3AF92",
"HX c #D7BAA3",
"JX c #CBB6AB",
"KX c #E5B198",
"LX c #D2C5B7",
"PX c #E4C9AC",
"IX c #E1C597",
"UX c #F9D0C0",
/* pixels */
"& & & # = m 9 O O O O . > o o o o X . ; 0 f x 5 u V r C C Z H P S 9 8 $ $ 9 % X Z _ H H _ S M S 8 8 8 P B . o       # m m =.=.G ",
"q.wX0.*.aXaX_.[ I ) g I ~ I { [ ` ] s.a.a.d.M.g.u C C J J K S L.b.g.I j W 7 U ` ] T ] [ _.(.).n.m.L.q I I q q M S 5.yXaXqXqXqXwX",
"<.1.q.-.aXeX_.G.K.P.j g.^ U.U._.Q.[.|.Z.h.l.'.U.K :.:.D J E j 1XD.F.k.Z.d.0 M.U.I.!.I.f.:X[.S.S.;X[.x Z.Z.l.d.].`.I.).).eXaXeXwX",
"<.<.rXeXyX5.L.G.b.M.j f.g.U.).}.K.P.'.h.d.M.H.G.u K 0.w.*X(.I [.9XA.F.D.j.w [.`.P.,X!.^ <X1X;X[./.M.x Z.Z.j.r.h.f.f. X=XeXaXeX;.",
"# # & m * $ o . ; ; O ; : . + % = $ $ o o 2 3 5 O X     X X O + . . : : : . o + o $ $ @ - @ - @ + + . . O O o O @ X =     # # # ",
"=.q.>.0.q.7.` L.`.Z.l.'.[.~ +.o.J G H F 3.).Q.Q._.(.[ 5.e.-.K S L a T.).=XaX).4.uXuX+Xw.,.| C q.o.X.o.] U p T.5.(.yXyX=.<.wX<.:.",
"H e.-.K 2.5.;.!.'.l.l.].{.l Y K J =.K } (.fX%XR.).).2.2.e.2.0.-.` S ).uXL.fXlX(._ 8.e.sXMXNXm *.7.2.;.5.5.M ;.;._.eXeX=.0.0.<.<.",
"= N Z m Z H I q a.p.w d.M.d i k * * V $ 4 U a U ` 4.y u 6 Z A F 8 q U.L.4.4.4.U _ _ 3.K ' H N ;.-.;.' ;.;.M ;.;.e.e.qXM -.0.<.wX",
"V >.G X S 9 B j j 5 ! z W ..l U 8 R J.$.@...c t U $.N.R t t : 0 r.f < 0 : t A 9.F A 4 + 9 3 q 3 2 M M T _.] S 6 6 Z A H S N m = ",
"| K w.' _.L.G.U.n.z =X2X-X~.kXzXn.kXZXkXjXcX<X! 2X3X;X;XM.t.x C.d.C.c.M.l bXJX*X9.R.` 3 `.].].h.U.L.Q.,X4.T +.4.6 ' 8._.(.uXeX6 ",
"%.} 5.{  XU.U.g.Q.~ <XzXkX!.zXSXK.hX<X2XvXvX3Xv S.;X].7X{.M.s.'.{.{.{.gXs.<X2XY.E.~.m.q '.H.l.'.].h.U.}.#.+.E X.p U ] L.Q._._.3 ",
"@ 2 2 o 2 2 3 5 3 5 4 i p 8 S 8 8 T T p g w v d r.u.x f w w e I e 0 0 x , Y Q  .Q i q 3 3 < ; w w w x ^ ^ i 8 7 2 k P P I [ [ ; ",
"m.hX).R.T.$.L L p / p i a T o.} D O.9.[ p.j.x j.u.d.5 t 8 8 9 6 2 m.zX3X&X&XB.d #XB.N./.n.P.q ^ ).Q.P.).).q P I g.B B 8 { L L ' ",
"g.<X).E.(.*Xa F U P U p 6 A +Xq.@X} 6.] H.oXh.h.l.{.4 O.` H G N % E.LXDX2X<X<Xx.DXZXB.n.n.J.4 J.).J.R.kXfXq !.G.H.H. XB _._.(.7.",
"s.!.<XJ.E.4.U ` T L T L A A 7.6.@X} 2.L a.'.'.].|.{.c .._ F H A p T.bXkXfXzXbXK.kXkX,XfX=Xn.i $.=X=XhXkX<XP L.H.H.H.G.I 4._.yXpX",
"0 w d q ( g W z , 5 : + 2 5 + 2 - % u p B B e 3 < > d + 4 + O o : 0 0 : > 3 5 I 7 7 8 4 4 g i 5 i a 4 4 T q M 8 ; B q { 3 9 % % ",
"d.A.{.i.6X:XA.D.D.S.r.c.d.y.u.y...&X2XfXgXgXfXs.jX3X&X#X#X5Xf S.F.F..XA.D.M.gXjX1XkXVXT.] b.h.U.P._.S y H A H ' 6 P [ B g.{ { B ",
"A.d.y.C.9X.XXXF.{.{.c.c.d.y.z.D.t.4XjX2X).gX,Xb.DX3X2X4X#XB.w 7XF.F.D.9X{.t.SXgX}.kXbX&X( f.M.M.U.Q.8 _ H K H M 6 M L.g.{ g.G.M ",
"< < u.u.y.t.d f Y ~ j P j q 0 < 0 v x.Q l W I q v.W ..c Q Q 0 0 f f z I T 8 ' L _ E v c > 0 l P Y ~ 8 8 6 s D 4 2 4 P p i h { [ ",
"[.[.{.7X:X[.jXQ 4 A M 6 9 3 L.,X>X$X;XB.x.n.1X,XM./.N.g @.B.[.I.[.[.9 $ Z H 6 M 4 c x.B.c.M.M.q Y c [ Y ~ R F T @.#.^ +.] S p { ",
"n.[.AX7X:X8X3X%Xy y 8 p S 7 T.jX6X9X0XIX6X#X6X>X;X1X;X..4X;X1X7X8XBXq L H M L M 5 x.9XD..XXX9Xj.W.v.M.!.f.n.7 ^.[.b.P.).$.` ;.[ ",
"N.B.<XBX8X3XFX/.Y R Y a i 5 W.FX0X0X0XAX>X>XAX5XjXhX%X&.hXkXjXCX1X[.q [ ;.;.G.P ! M.6X7X:XXX.Xu.M.v.g.s.f.`.w I.^.!.^.K.] [ ;.;.",
"A F o.k z v x s.q q 2 4 5 , d c u.1 d z t t t u $ u r & Z S 8 5 j 0 0 : 2 O 2 a P 5 , > > 1 e 0 5 g P j f.j.a.q 3 t p 6 H M M M ",
"J K F U Y b.h.h.s.f.m.<XDXDXSXZXZXn.gX<XN.&XJ.=XK *.*.*.J 5.L.b.B.f.h.[.jXk R.R.J.~.W.! c B.c.S.;X[.^ [.'.H.].|.}./ ` [ _.' eXe.",
"' K _ L ) h.h.l.j.h.g.).HXUXIXHXHX!.}.BXM.B.1X|.8 ' 2.K 6.4.( :XD.y.A.0XCXz &XW.m././...c V.V.{.{.gXs.|.'.l.u.l.s.z ( ~ [ G.;.;.",
"$ 6 6 3 3 0 w e w w q U.^.n.<XkXfX[ h x t.d.a.w 7 8 a F s t > d u.y.{.8XW.i / $.@.W l v d v s.x s.x 0 x OXr.j.j.c.v v ( I I { { ",
"E R./.M.c.c.x.x !.fX,X).v./ a 4 % u 4 4 0 w j.j.s.l t t  .#X#X$XS.g.4 T G -.K A a Y B.[.a.I g.I c x ! r.x r.x.1X8XBXx.=XvX@.B gX",
"U hXBX,Xc.M.;Xm.bXJXJXMXMXuXs s u F F k I h.|.].S.[.;Xg 2X5XZXFXSXSX} rX<.wXq.q._.@.`.'.Z.].eXs.! x.M.I.;X[.v vXZXZX8XIX<X! [.I.",
"E pXkX,X[.B.&X+.LXLXsXMXJXaXK A s F O.T R Q.gX|.l.].:Xs.KXIXKXHXIXbX} q.1.1.<.2.X.( ;XZ.l.l.s.^ ^ v.s.M.~.R.c 2XZXZXAXSX2Xv [.h.",
"4.n.) j 0 0 r.v R E P 4.o.X.P + % % % r A T l q w e 1 1 r.x.s.v x...t u Z r Z F Y 5 w > > < > j j 7 P p 8 y s $.@.l l x.c.: 0 0 ",
"M.|.1X:XC.y.i.z.C.C.CXKXBX8X0XGX<X(.sXiX@X,.} +.[.;X:X3X;X[.I.1XA.Z.{.|.<XT.*X~.).!.!.f.a.m.s.K.U.L.' w.rXqXw.3.3.U m.g.I.f.M.^ ",
"}.1X8X{.F.D.z.k.z.].XXKXGXCX0XGXJXO.q.@X1.@X6.} =X<X/.M.;XI.W M.{.XX].|.1X^ ^.).L.!.!.( g ..@.[ ;.5.N q.q.0.*.q.K Z ' [ g.g.] ^ ",
"m.[.BX Xr.a.t.b.I.}.,XvXBX3X].SXuXe.*.w.q.6.O.2.9.%X%.@.N.v.v.8X>X7X:XBXgXg.Q.).K.).!.( h T _ E o.' Z w.mXwX0.<.0.M H 4.{ G.;.L ",
"/ [ P.U.a.x j q i A T c p g c { 5.uX(.' _ O.O.+X} D u y Q ! x.C.c.t.v s.[ [ T T L Y g.g.I h ] ( #.J.] A N Z Z *.-.e.H M L [ { eX",
"/ hXVXKXKXVXBX{ 4.6.@X6.2.E =XVXVXVXSXfXE._ K K O.K { [ VXCX9XGXAXgXI ` O.7.*._ ] <X|.|.'.1XVXw Z.l.d.Z.U.s.b.,XfXK.m.m.k Q Y L ",
"8 =XfXgXCXVXgX8 9.9.6.q.+X} uXLXBX1XSXjXK.S 2.3.-.5.-.g.VXGXCXGXPXPXP -.>.| >.O.T gXgX{.`.{.eXw oXA.y.j.d.c.`.|.1X[.<X3XW R ..E ",
"D o._ $.L.#.5.' 2.>.J J J K 2.(.R.N.N.R E 4 u u Z u * K 8.uX=XT.4._.m >.:.C >.F 9 ( P.m.K.( Y 5 a.r.d.b.g.b.( ).Q.J.).<Xa p A u ",
"sXyXw.uXcXfXlXnXnXuXlXdXyXlXMXhX~.N.W.&X2XhX=X8.*XsXsXnXuX-X*XhXzXlXuX+Xq.w.(.fX,X1X[.Q Y.%XR.=XW.n.^ [ K.zX=X] k ( #.uXbXMXaXfX",
"nXnXhXbXDXbXvX2XkXY.DXSXkXkXSXBXC.k.{.:X].;X1X}.fX=X3.4.E.Y...&Xn.J.=X^.U.}.].].D.D.D.x.&XN...E.n.m.p R.L.#.Q.U.g.b. X|.|. XeXh.",
"zXDXfXkXSXjXSXjXkXW.HXDXHXZXvXBXM.7X7XD.D.{.M.B.,X).Q.T.%.+.%.%X%XN.n.[.f.M.oXoXXXD.C.t.B.&XR.o.(.4._ E.$.4.m.K.I Z.|.].|.'.'.p.",
"L._.K.f.s.s.I ~ %.E s s F  .U R ~ ~ g.v ) ) ! W &.X.s K } } V r D s  .O.L [ ( ! ! d z d Q i F F D D % u % u i j l d s.f x j ^ q ",
"s.`.I.{.|.|.}.L.E.w.+X7.6.7.(.=Xw.E.E.J.;XjXZX3XvXbXbX*X*X+XiXtXtX+X*XxXlXuX=XuX$.ZX3X[.,XkXhXE.cXxXsX*X8.i g.b.[.Z.Z.M.f ;X;X<X",
"w Z.k.c.c.Z.M.7 L _ 2._ o.7.4.3.e.2.E Y.x.AX0X0X6XFXDXN.*X*XiXw.w.uX2.8.7.8.E.%.c PXKX8X8XCXvX@.cXcXhXvXSXr.h.C.A.A.A.D.b S.>XB.",
"u.z.F.].B.[.B.S 4.8.e.5.8.8.(.*X2.w.9...x.FXAX6X0X6X2X/ %X8.w.8.7.(.' w.(.9.w.E.c 3X6X:X8X:XZX&XnX2X=X2XjXb.s.Z.A.l.F.C.f AX;XB.",
"y.0 0 d , u y X.6 9 $ M M 8 7 7 p $ 4 4 @.c k ..R X.4._ ` T 8 R S _ F K K D D F E ..n n d d ..s  .@X&.c &.+.i 7 5 g z z d c i c ",
"1X;X;XR.+.$.E 8.5.5.[ eX1X1X[.D.P.W !.^.R.2X%XO.9.9.7.4.o.] T fXhXnXhXiX*X*XpX2X2X4X4X4Xn 5XZX2XvXcXcX&.+X-X*XuXpXt LXMX=X%.*X%.",
":X3X3X&Xn.&XE.Y.$.m.l [.A.D..X9X7Xs.<XZXW.kXhX%.9.9.w.(.w.E.` hX3X4X$X5XvXm.4XvX;X>X5X5Xn >X8X{.7X:X2X..cXxXxXxX*X| +X2XhX=XR.E.",
"! v.s.x.@.m.+.$.+.] t S.S.D.i.i.Z.f [.c.B.m.K.E.o.2.7.7.7.8.o.bXvX>X&X3X<Xc <X1X2X3XvXvXx.4XZXCX:X3X<Xc %X%X+X+X+Xs xXpX-X=X=X&X",
"q ^ ~ ) Y Y U 6 6 * M M 9 3 f $X#X$XV.V.n v v I _.;.L.;.F T ] ~ ..R F a Z 5.2.K F 2.9.6.6.} u Z X.R 8.3.M m G >.q.+X} D % c ..N.",
"I G.g.b.m.R.E.S H =.C M Z 6 &XHXIXFX0X0X$Xx.B.M.}.eX).[ J.L.b.m.J.4.o.w.0.q.0.rXq.,.dXiXiXdXtXC C | J *.<.<.G dXrXrXw.*XE /.[.B.",
"P [ P ~ Q m.4.u m =.G G Z * cXPXPX5XIXIX0Xi.V.F.d.C.M.h ] #.n.P.).(.;.2.2.2.} tXq.,.mXxXmXxXmX=.V :.<.>.<.wX=.mXNXdXsXlX[ g.I.`.",
"9 7 z 4 , 4 u s Z m m & Z u &.%.N.#X4Xx.V.u.y.u.r.x ( ( U p F H M T S Z u 6 u % s F o.K D D G V & & m & C V V >.>.J K H P q q e ",
"n.x.V.n 5XvX2X2XxX*X2.(.=X%XN.$.$.%.=X-XhXB.v.m.v.` O.+X@X,.q.q.rXq.@XO.3.+.<X<X<XBX1XT.o.w.<.q.<.>.D *.,.*.>.} 6.K 9.%.).Q.I.s.",
"/.&X3Xt.>X5X&X2X2X-XF (.*X%.&X&XJ.` E.E.%XJ.Y.$.U 2.J :.:.1.:.:.:.C ,.} X...BXCX8X8X1XK.S } >.=.>.>.* >.>.D D | } r +XE.R.~.<XM.",
"[.}.1XM.3X8XkX<XlXuX-.w.(.(.-X=X_.R J.=X%XR.Y.J.6 } J ,.1.1.:.:.1.,.} K _ L.SXCX8X7XBX=XF O.,.| >.<.V 0.q.,.>.2.} r 9.+X*X-XhXY.",
"x d.d.M.c.s.v.l ` o.5.K K 3.3.#.4.J.%.E ..<X;X/.@.%.%.,.| | @X1.<.q.>.+X(.R.~.v.b.x.M.N.c E D D J 6.q.>.Z = y 6 $.i R k 4 k Q N.",
"w l.l.k.l.`.[.I { ` 2.5.7.8.o.o.' o.X.$.V.ZX>X6XAXZXbX%.*Xw.q.q.q.yX6.7.7.+X%XR.n FXvX>X<X3XZX%.nXiX%XcX2X/ n.d.c.M.[.Z.w 6X:XD.",
"l.l.h.Z.Z.Z.M.g [ 8.2._ ' 8.(.E.8.o.&. ...0XAX0X9XZX3XR 3.w.eXeX7.+X>.w.w.O.X.%X .DXZX3X3XAX5X#X5XcXcX-X2X) s.S.A.Z.Z.Z.e D.S.S.",
"0 5 , d 5 d i S u y * u a a R U T F a s  .&X;X[.;X<X=X4.2.w.;.(.7.2.D 7.6.7.7.T k E.&XN.#X&.#Xn nXpX*X=XhX~ ) ) s.h.s.d.f 1X;XV.",
"3X3X2X;XQ m.m.R.+._ U =X=Xn.c.M.( U +.+.N.B.v c h ` o.7.' _ Z 4.] =XR.E.(.4.J.E.N.N...V.d #X#X#X&.%.=XU X.T.+.%.g.P [.}.Q ..c v ",
"$X>X>X$Xx.S.n.n.m.Y.v M.c.{.XX9X{.f 1XkX<XkXhXT.4.8.e.*X3.9.+.3XZX;X3X3X;Xx.4X3X0X6X>X6Xu.0X6X$X>XDXbX..-XcXpXcXhXa bXDX-XN.%X&.",
"$X$X$X;XB.[.!.K.n.( W gX7XXX.XoX7Xs.>X&Xn.^.).[ (.5.2.6.3.%.X.<X3X>X>X4X2X..;XZX4X;X0XAXV.8XGX8XvX/.2Xc cX-X+X-X*Xs pX=XcX2X%X#X",
", 0 7 q 8 M H N * m u 6 4 g e 0 j l c c g g h p [ ' ' _ O.E L T.K./ T ] O.O.9. .X.X.9.E.4 a T ' $.@.9.F | D | | >.| 2.o.X.k c %.",
"I K.g.#.e._.e.G =.V D Z y t [.PXPXIXDXDX<XN.<X!.Q.fXpX3.3.3.#.4.4.(.2.7.O.2.w.q.6.w.MXsXMXdXqXK ] J.9.&.| :.:.NXdXtXqX*XS *XhXY."
};
